<svg width="33" height="33" viewBox="0 0 33 33" fill="none" xmlns="http://www.w3.org/2000/svg">
<g clip-path="url(#clip0_177_124)">
<path d="M19.5469 28.7031H3.29688C1.61094 28.7031 0.25 27.3422 0.25 25.6562V5.09998C0.25 3.41404 1.61094 2.0531 3.29688 2.0531H25.6406C27.3266 2.0531 28.6875 3.41404 28.6875 5.09998V19.8265C28.6875 20.3953 28.2406 20.8422 27.6719 20.8422C27.1031 20.8422 26.6562 20.3953 26.6562 19.8265V5.09998C26.6562 4.53123 26.2094 4.08435 25.6406 4.08435H3.29688C2.72813 4.08435 2.28125 4.53123 2.28125 5.09998V25.6562C2.28125 26.225 2.72813 26.6719 3.29688 26.6719H19.5469C20.1156 26.6719 20.5625 27.1187 20.5625 27.6875C20.5625 28.2562 20.1156 28.7031 19.5469 28.7031Z" fill="#1055F8"/>
<path d="M8.375 7.61875C7.80625 7.61875 7.35938 7.17188 7.35938 6.60312V1.28125C7.35938 0.7125 7.80625 0.265625 8.375 0.265625C8.94375 0.265625 9.39062 0.7125 9.39062 1.28125V6.60312C9.39062 7.17188 8.94375 7.61875 8.375 7.61875ZM20.8062 7.61875C20.2375 7.61875 19.7906 7.17188 19.7906 6.60312V1.28125C19.7906 0.7125 20.2375 0.265625 20.8062 0.265625C21.375 0.265625 21.8219 0.7125 21.8219 1.28125V6.60312C21.8219 7.17188 21.375 7.61875 20.8062 7.61875ZM27.6719 12.4531H1.26562C0.696875 12.4531 0.25 12.0063 0.25 11.4375C0.25 10.8687 0.696875 10.4219 1.26562 10.4219H27.6719C28.2406 10.4219 28.6875 10.8687 28.6875 11.4375C28.6875 12.0063 28.2406 12.4531 27.6719 12.4531ZM25.6406 32.7656C21.7203 32.7656 18.5312 29.5766 18.5312 25.6562C18.5312 21.7359 21.7203 18.5469 25.6406 18.5469C29.5609 18.5469 32.75 21.7359 32.75 25.6562C32.75 29.5766 29.5609 32.7656 25.6406 32.7656ZM25.6406 20.5781C24.2938 20.5781 23.0022 21.1131 22.0498 22.0655C21.0975 23.0178 20.5625 24.3094 20.5625 25.6562C20.5625 27.0031 21.0975 28.2947 22.0498 29.247C23.0022 30.1994 24.2938 30.7344 25.6406 30.7344C26.9874 30.7344 28.2791 30.1994 29.2314 29.247C30.1837 28.2947 30.7188 27.0031 30.7188 25.6562C30.7188 24.3094 30.1837 23.0178 29.2314 22.0655C28.2791 21.1131 26.9874 20.5781 25.6406 20.5781Z" fill="#1055F8"/>
<path d="M27.6719 28.7031C27.5387 28.7047 27.4066 28.6785 27.2842 28.626C27.1617 28.5735 27.0516 28.496 26.9609 28.3984L24.9297 26.3672C24.7383 26.1797 24.6288 25.9241 24.625 25.6562V22.6094C24.625 22.0406 25.0719 21.5938 25.6406 21.5938C26.2094 21.5938 26.6562 22.0406 26.6562 22.6094V25.2297L28.3828 26.9563C28.7891 27.3625 28.7891 27.9922 28.3828 28.3984C28.1797 28.6016 27.9156 28.7031 27.6719 28.7031Z" fill="#1055F8"/>
</g>
<defs>
<clipPath id="clip0_177_124">
<rect width="32.5" height="32.5" fill="white" transform="translate(0.25 0.265625)"/>
</clipPath>
</defs>
</svg>
