<svg width="33" height="33" viewBox="0 0 33 33" fill="none" xmlns="http://www.w3.org/2000/svg">
<path d="M9.729 24.625V21.9166M16.4998 24.625V20.5625M23.2707 24.625V17.8541M3.63525 16.5C3.63525 10.436 3.63525 7.40267 5.5189 5.51902C7.40255 3.63538 10.4345 3.63538 16.4998 3.63538C22.5638 3.63538 25.5971 3.63538 27.4808 5.51902C29.3644 7.40267 29.3644 10.4346 29.3644 16.5C29.3644 22.5639 29.3644 25.5973 27.4808 27.4809C25.5971 29.3645 22.5652 29.3645 16.4998 29.3645C10.4359 29.3645 7.40255 29.3645 5.5189 27.4809C3.63525 25.5973 3.63525 22.5653 3.63525 16.5Z" stroke="#02DB02" stroke-width="2.03125" stroke-linecap="round" stroke-linejoin="round"/>
<path d="M8.36377 15.8039C11.282 15.9014 17.8998 15.4613 21.6644 9.48669M19.1971 8.76491L21.7375 8.35596C22.0463 8.31669 22.5013 8.56179 22.6137 8.85294L23.284 11.0711" stroke="#02DB02" stroke-width="1.52344" stroke-linecap="round" stroke-linejoin="round"/>
</svg>
