<svg width="33" height="33" viewBox="0 0 33 33" fill="none" xmlns="http://www.w3.org/2000/svg">
<path d="M16.5002 16.5001C17.9368 16.5001 19.3145 15.9294 20.3303 14.9136C21.3461 13.8978 21.9168 12.52 21.9168 11.0834C21.9168 9.64683 21.3461 8.26907 20.3303 7.25325C19.3145 6.23743 17.9368 5.66675 16.5002 5.66675C15.0636 5.66675 13.6858 6.23743 12.67 7.25325C11.6542 8.26907 11.0835 9.64683 11.0835 11.0834C11.0835 12.52 11.6542 13.8978 12.67 14.9136C13.6858 15.9294 15.0636 16.5001 16.5002 16.5001Z" stroke="#F805F8" stroke-width="2.03125" stroke-linecap="round" stroke-linejoin="round"/>
<path d="M30.0421 23.6501C30.0419 24.4649 29.7197 25.2466 29.1456 25.8249C27.8239 27.1574 26.5415 28.5467 25.1698 29.8305C25.0165 29.9704 24.8154 30.0461 24.6079 30.0418C24.4005 30.0375 24.2026 29.9536 24.0553 29.8075L20.1038 25.8262C19.5291 25.2478 19.2065 24.4655 19.2065 23.6501C19.2065 22.8347 19.5291 22.0524 20.1038 21.4739C20.3905 21.185 20.7315 20.9557 21.1072 20.7992C21.4829 20.6427 21.8858 20.5621 22.2928 20.5621C22.6998 20.5621 23.1028 20.6427 23.4785 20.7992C23.8542 20.9557 24.1952 21.185 24.4818 21.4739L24.6254 21.6188L24.7689 21.4739C25.1994 21.0397 25.7493 20.7433 26.3486 20.6223C26.9479 20.5014 27.5697 20.5613 28.1349 20.7946C28.7001 21.0278 29.1832 21.4238 29.5227 21.9323C29.8623 22.4407 30.0431 23.0387 30.0421 23.6501Z" stroke="#F805F8" stroke-width="2.03125" stroke-linejoin="round"/>
<path d="M7.021 27.3335V25.9793C7.02067 24.38 7.42499 22.8066 8.19633 21.4056C8.96766 20.0046 10.0809 18.8215 11.4325 17.9665C12.7841 17.1115 14.33 16.6124 15.9264 16.5156C17.5228 16.4187 19.1177 16.7274 20.5627 17.4128" stroke="#F805F8" stroke-width="2.03125" stroke-linecap="round" stroke-linejoin="round"/>
</svg>
