<svg width="33" height="33" viewBox="0 0 33 33" fill="none" xmlns="http://www.w3.org/2000/svg">
<path d="M20.5624 9.72917H12.4374M20.5624 15.1458H12.4374M20.5624 20.5625H15.1458M7.02075 4.3125H25.9791V28.6875L24.5816 27.4904C24.0907 27.0697 23.4656 26.8385 22.8191 26.8385C22.1727 26.8385 21.5475 27.0697 21.0567 27.4904L19.6592 28.6875L18.263 27.4904C17.7721 27.0694 17.1467 26.8379 16.4999 26.8379C15.8532 26.8379 15.2277 27.0694 14.7368 27.4904L13.3406 28.6875L11.9431 27.4904C11.4523 27.0697 10.8272 26.8385 10.1807 26.8385C9.53424 26.8385 8.9091 27.0697 8.41825 27.4904L7.02075 28.6875V4.3125Z" stroke="#FF0000" stroke-width="1.52344" stroke-linecap="round" stroke-linejoin="round"/>
</svg>
