<svg width="33" height="33" viewBox="0 0 33 33" fill="none" xmlns="http://www.w3.org/2000/svg">
<path d="M10.8125 19.75C10.597 19.75 10.3903 19.6644 10.238 19.512C10.0856 19.3597 10 19.153 10 18.9375C10 18.722 10.0856 18.5153 10.238 18.363C10.3903 18.2106 10.597 18.125 10.8125 18.125H22.1875C22.403 18.125 22.6097 18.2106 22.762 18.363C22.9144 18.5153 23 18.722 23 18.9375C23 19.153 22.9144 19.3597 22.762 19.512C22.6097 19.6644 22.403 19.75 22.1875 19.75H10.8125ZM10.8125 24.625C10.597 24.625 10.3903 24.5394 10.238 24.387C10.0856 24.2347 10 24.028 10 23.8125C10 23.597 10.0856 23.3903 10.238 23.238C10.3903 23.0856 10.597 23 10.8125 23H22.1875C22.403 23 22.6097 23.0856 22.762 23.238C22.9144 23.3903 23 23.597 23 23.8125C23 24.028 22.9144 24.2347 22.762 24.387C22.6097 24.5394 22.403 24.625 22.1875 24.625H10.8125Z" fill="#8100FA"/>
<path fill-rule="evenodd" clip-rule="evenodd" d="M18.4256 1.87488H7.5625C6.91603 1.87488 6.29605 2.13169 5.83893 2.58881C5.38181 3.04593 5.125 3.66591 5.125 4.31238V28.6874C5.125 29.3338 5.38181 29.9538 5.83893 30.411C6.29605 30.8681 6.91603 31.1249 7.5625 31.1249H25.4375C26.084 31.1249 26.704 30.8681 27.1611 30.411C27.6182 29.9538 27.875 29.3338 27.875 28.6874V11.9531C27.8748 11.3429 27.6458 10.7549 27.2331 10.3054L20.2229 2.66463C19.9944 2.41559 19.7167 2.21678 19.4073 2.08082C19.0979 1.94486 18.7636 1.87473 18.4256 1.87488ZM6.75 4.31238C6.75 4.09689 6.8356 3.89023 6.98798 3.73785C7.14035 3.58548 7.34701 3.49988 7.5625 3.49988H18.4256C18.5384 3.49975 18.6499 3.5231 18.7531 3.56842C18.8564 3.61374 18.949 3.68005 19.0253 3.76313L26.0355 11.4039C26.1733 11.5536 26.2498 11.7496 26.25 11.9531V28.6874C26.25 28.9029 26.1644 29.1095 26.012 29.2619C25.8597 29.4143 25.653 29.4999 25.4375 29.4999H7.5625C7.34701 29.4999 7.14035 29.4143 6.98798 29.2619C6.8356 29.1095 6.75 28.9029 6.75 28.6874V4.31238Z" fill="#8100FA"/>
<path d="M18.125 11.625H27.0625C27.278 11.625 27.4847 11.7106 27.637 11.863C27.7894 12.0154 27.875 12.222 27.875 12.4375C27.875 12.653 27.7894 12.8597 27.637 13.012C27.4847 13.1644 27.278 13.25 27.0625 13.25H17.3125C17.097 13.25 16.8903 13.1644 16.738 13.012C16.5856 12.8597 16.5 12.653 16.5 12.4375V2.6875C16.5 2.47201 16.5856 2.26535 16.738 2.11298C16.8903 1.9606 17.097 1.875 17.3125 1.875C17.528 1.875 17.7347 1.9606 17.887 2.11298C18.0394 2.26535 18.125 2.47201 18.125 2.6875V11.625Z" fill="#8100FA"/>
</svg>
